<?xml version="1.0" encoding="UTF-8" standalone="no"?>
<svg
   xmlns:dc="http://purl.org/dc/elements/1.1/"
   xmlns:cc="http://creativecommons.org/ns#"
   xmlns:rdf="http://www.w3.org/1999/02/22-rdf-syntax-ns#"
   xmlns:svg="http://www.w3.org/2000/svg"
   xmlns="http://www.w3.org/2000/svg"
   xmlns:xlink="http://www.w3.org/1999/xlink"
   xmlns:sodipodi="http://sodipodi.sourceforge.net/DTD/sodipodi-0.dtd"
   xmlns:inkscape="http://www.inkscape.org/namespaces/inkscape"
   version="1.1"
   id="Layer_1"
   x="0px"
   y="0px"
   viewBox="0 0 1500 1500"
   style="enable-background:new 0 0 1500 1500;"
   xml:space="preserve"
   sodipodi:docname="rocket-eskimo-large.svg"
   inkscape:version="1.0.2 (1.0.2+r75+1)"><metadata
   id="metadata20"><rdf:RDF><cc:Work
       rdf:about=""><dc:format>image/svg+xml</dc:format><dc:type
         rdf:resource="http://purl.org/dc/dcmitype/StillImage" /><dc:title></dc:title></cc:Work></rdf:RDF></metadata><defs
   id="defs18"><linearGradient
     inkscape:collect="always"
     id="linearGradient945"><stop
       style="stop-color:#0000ff;stop-opacity:1;"
       offset="0"
       id="stop941" /><stop
       style="stop-color:#00beff;stop-opacity:1"
       offset="1"
       id="stop943" /></linearGradient><linearGradient
     inkscape:collect="always"
     xlink:href="#linearGradient945"
     id="linearGradient931"
     x1="1297.7574"
     y1="122.3362"
     x2="436.24997"
     y2="1182.8411"
     gradientUnits="userSpaceOnUse" /><linearGradient
     inkscape:collect="always"
     xlink:href="#linearGradient945"
     id="linearGradient933"
     x1="1297.7574"
     y1="122.3362"
     x2="436.24997"
     y2="1182.8411"
     gradientUnits="userSpaceOnUse" /><linearGradient
     inkscape:collect="always"
     xlink:href="#linearGradient945"
     id="linearGradient935"
     x1="1297.7574"
     y1="122.3362"
     x2="436.24997"
     y2="1182.8411"
     gradientUnits="userSpaceOnUse" /><linearGradient
     inkscape:collect="always"
     xlink:href="#linearGradient945"
     id="linearGradient937"
     x1="1297.7574"
     y1="122.3362"
     x2="436.24997"
     y2="1182.8411"
     gradientUnits="userSpaceOnUse" /><linearGradient
     inkscape:collect="always"
     xlink:href="#linearGradient945"
     id="linearGradient939"
     x1="1297.7574"
     y1="122.3362"
     x2="436.24997"
     y2="1182.8411"
     gradientUnits="userSpaceOnUse" /></defs><sodipodi:namedview
   pagecolor="#ffffff"
   bordercolor="#666666"
   borderopacity="1"
   objecttolerance="10"
   gridtolerance="10"
   guidetolerance="10"
   inkscape:pageopacity="0"
   inkscape:pageshadow="2"
   inkscape:window-width="1615"
   inkscape:window-height="1381"
   id="namedview16"
   showgrid="false"
   inkscape:zoom="0.672"
   inkscape:cx="705.35473"
   inkscape:cy="750"
   inkscape:window-x="0"
   inkscape:window-y="34"
   inkscape:window-maximized="0"
   inkscape:current-layer="Layer_1" />
<style
   type="text/css"
   id="style2">
	.st0{fill:url(#SVGID_1_);}
	.st1{fill:#AF69AA;}
</style>
<linearGradient
   id="SVGID_1_"
   gradientUnits="userSpaceOnUse"
   x1="448.9452"
   y1="1205.3579"
   x2="1089.058"
   y2="96.6499">
	<stop
   offset="0"
   style="stop-color:#3C51A2"
   id="stop4" />
	<stop
   offset="0.3358"
   style="stop-color:#99479A"
   id="stop6" />
	<stop
   offset="1"
   style="stop-color:#A94B70"
   id="stop8" />
</linearGradient>
<path
   class="st0"
   d="M1285.07,283.18c-2.93,71.64-22.23,139.64-47.25,206.15c-50.13,133.21-113.58,259.54-197.3,375.08  c-20.7,28.57-41.07,59.39-72,76.45c-23.43,12.92-23.68,25.64-20.07,48.39c9.66,60.79-2.74,118.67-35.25,171  c-50.72,81.65-121.2,137.83-215.69,161.5c-12.02,3.01-24.3,2.67-36.29,1.39c-22.13-2.36-32.81-15.44-33.65-37.73  c-1.44-38.18,11.53-74.07,17.02-111.14c2.32-15.67,3.74-31.31-1.18-46.88c-6.23-19.69-18.33-32.03-39.7-34.51  c-60.9-7.09-103.1-38.85-125.81-96.12c-2.89-7.3-6.76-14.21-10.18-21.3c-19.03-39.35-39.8-48.44-82.46-36.12  c-28.51,8.24-53.85,24.77-82.9,31.57c-12.35,2.89-24.59,6.61-37.1,8.36c-31.97,4.46-49.71-11.73-50.12-44  c-0.23-17.88,3.39-35.07,8.82-51.79c14.96-45.98,33.53-90.58,52.4-135.08c31.99-75.45,92.78-110.14,170.08-121.95  c27.57-4.21,55.24-7.79,82.88-11.5c9.33-1.25,16.49-4.29,22.21-13.08c135.56-208.83,329.61-336.53,565.25-406.16  c19.13-5.65,38.46-11.06,58.05-14.7c70.11-13.02,106.43,16.12,110.23,87.57C1285.3,273.44,1285.07,278.31,1285.07,283.18z   M928.22,667.27c55.96,0.73,99.48-43.39,101.97-99.46c2.51-56.59-37.11-106.37-107.09-107.62c-55.1-0.99-96.24,44.22-96.28,103.93  C826.79,624.18,868.37,666.49,928.22,667.27z"
   id="path11"
   style="fill:url(#linearGradient939);fill-opacity:1" />
<path
   class="st1"
   d="M386.89,1270.76c-62.74,5.04-79.37-30.83-72.05-84.47c7.75-56.81,31.29-107.77,67.89-152.28  c3.42-4.16,7.65-7.99,12.23-10.77c10.81-6.58,19.11-5.65,23.04,8.49c4.12,14.8,0.99,28.78-2.94,42.88  c-6.65,23.88-14.66,47.47-13.3,72.87c1.18,21.93,9.65,30.2,31.8,30.02c23.08-0.18,43.27-10.55,63.99-18.67  c16.86-6.61,33.58-13.81,49.6-22.19c10.8-5.65,12.35-0.93,12.9,7.99c1.21,19.61-5.48,36.58-16.73,52.23  C510.26,1242.85,443.79,1274.33,386.89,1270.76z"
   id="path13"
   style="fill:url(#linearGradient937);fill-opacity:1" />
<path
   style="fill:url(#linearGradient935);stroke-width:1.4881;fill-opacity:1"
   d="M 612.36875,918.13512 C 433.9558,815.07889 287.74846,730.06085 287.46355,729.20614 c -0.53568,-1.60707 13.34852,-23.09037 19.3839,-29.99309 l 3.42041,-3.91195 317.44278,183.4083 c 174.59353,100.87457 318.11405,184.0796 318.93449,184.9 0.99688,0.9969 0.96207,4.3568 -0.10491,10.1288 -2.2883,12.3785 -7.71021,31.9293 -8.83119,31.8442 -0.52418,-0.04 -146.92729,-84.391 -325.34025,-187.44728 z"
   id="path22" /><path
   style="fill:url(#linearGradient933);stroke-width:1.4881;fill-opacity:1"
   d="M 671.875,1102.0444 475.44643,988.53098 467.2457,973.15045 c -15.47247,-29.01872 -28.87969,-39.24787 -51.32308,-39.15741 -6.54762,0.0264 -15.65427,0.85278 -20.23701,1.83642 l -8.33226,1.78842 -75.37053,-43.53776 c -66.63035,-38.489 -75.26584,-43.88845 -74.46772,-46.56192 1.76475,-5.91143 12.88235,-34.28958 13.79203,-35.20474 1.25551,-1.26308 643.78216,369.95624 643.78216,371.94464 0,2.3658 -23.4274,31.5325 -25.22744,31.4077 -0.85706,-0.059 -89.95114,-51.189 -197.98685,-113.6214 z"
   id="path24" /><path
   style="fill:url(#linearGradient931);stroke-width:1.4881;fill-opacity:1"
   d="m 741.79286,1195.6339 c -71.34587,-41.1788 -93.98152,-54.9164 -94.79162,-57.529 -0.58533,-1.8878 -2.18993,-7.3026 -3.56578,-12.0329 -3.09266,-10.6329 -10.39531,-21.1356 -18.46353,-26.5543 -6.12845,-4.1159 -8.20633,-4.6955 -37.05903,-10.3367 -46.17151,-9.0274 -79.20099,-33.7986 -101.22723,-75.9176 -4.29968,-8.2219 -7.45652,-15.31002 -7.01519,-15.75134 0.59541,-0.59541 372.11053,212.89574 384.91285,221.19014 1.80865,1.1718 -0.30887,4.015 -11.16071,14.9855 -7.36607,7.4467 -14.4075,14.1027 -15.64762,14.7912 -1.61519,0.8967 -28.84007,-14.0925 -95.98214,-52.845 z"
   id="path26" /></svg>
